<svg viewBox="-16 -32 880 192" width="880" height="192" xmlns="http://www.w3.org/2000/svg"><desc>Generated with https://github.com/Platane/snk</desc><style>@keyframes c0{9.14%{fill:var(--c1)}9.16%,to{fill:var(--ce)}}@keyframes c1{9.48%{fill:var(--c1)}9.5%,to{fill:var(--ce)}}@keyframes c2{75.58%{fill:var(--c4)}75.6%,to{fill:var(--ce)}}@keyframes c3{11.52%{fill:var(--c1)}11.54%,to{fill:var(--ce)}}@keyframes c4{10.84%{fill:var(--c1)}10.86%,to{fill:var(--ce)}}@keyframes c5{14.91%{fill:var(--c1)}14.93%,to{fill:var(--ce)}}@keyframes c6{15.92%{fill:var(--c1)}15.94%,to{fill:var(--ce)}}@keyframes c7{16.6%{fill:var(--c1)}16.62%,to{fill:var(--ce)}}@keyframes c8{53.21%{fill:var(--c2)}53.23%,to{fill:var(--ce)}}@keyframes c9{52.87%{fill:var(--c1)}52.89%,to{fill:var(--ce)}}@keyframes ca{52.53%{fill:var(--c2)}52.55%,to{fill:var(--ce)}}@keyframes cb{72.53%{fill:var(--c4)}72.55%,to{fill:var(--ce)}}@keyframes cc{55.92%{fill:var(--c2)}55.94%,to{fill:var(--ce)}}@keyframes cd{25.75%{fill:var(--c1)}25.77%,to{fill:var(--ce)}}@keyframes ce{17.96%{fill:var(--c1)}17.98%,to{fill:var(--ce)}}@keyframes cf{53.55%{fill:var(--c2)}53.57%,to{fill:var(--ce)}}@keyframes cg{71.52%{fill:var(--c3)}71.54%,to{fill:var(--ce)}}@keyframes ch{52.19%{fill:var(--c1)}52.21%,to{fill:var(--ce)}}@keyframes ci{55.24%{fill:var(--c2)}55.26%,to{fill:var(--ce)}}@keyframes cj{22.36%{fill:var(--c1)}22.38%,to{fill:var(--ce)}}@keyframes ck{25.41%{fill:var(--c1)}25.43%,to{fill:var(--ce)}}@keyframes cl{18.3%{fill:var(--c1)}18.32%,to{fill:var(--ce)}}@keyframes cm{20.67%{fill:var(--c1)}20.69%,to{fill:var(--ce)}}@keyframes cn{21.01%{fill:var(--c1)}21.03%,to{fill:var(--ce)}}@keyframes co{21.35%{fill:var(--c1)}21.37%,to{fill:var(--ce)}}@keyframes cp{21.68%{fill:var(--c1)}21.7%,to{fill:var(--ce)}}@keyframes cq{18.63%{fill:var(--c1)}18.65%,to{fill:var(--ce)}}@keyframes cr{18.97%{fill:var(--c1)}18.99%,to{fill:var(--ce)}}@keyframes cs{19.65%{fill:var(--c1)}19.67%,to{fill:var(--ce)}}@keyframes ct{29.14%{fill:var(--c1)}29.16%,to{fill:var(--ce)}}@keyframes cu{29.48%{fill:var(--c1)}29.5%,to{fill:var(--ce)}}@keyframes cv{29.82%{fill:var(--c1)}29.84%,to{fill:var(--ce)}}@keyframes cw{43.72%{fill:var(--c1)}43.74%,to{fill:var(--ce)}}@keyframes cx{42.36%{fill:var(--c1)}42.38%,to{fill:var(--ce)}}@keyframes cy{67.79%{fill:var(--c3)}67.81%,to{fill:var(--ce)}}@keyframes cz{30.16%{fill:var(--c1)}30.18%,to{fill:var(--ce)}}@keyframes c10{44.4%{fill:var(--c1)}44.42%,to{fill:var(--ce)}}@keyframes c11{60.33%{fill:var(--c2)}60.35%,to{fill:var(--ce)}}@keyframes c12{41.68%{fill:var(--c1)}41.7%,to{fill:var(--ce)}}@keyframes c13{41.35%{fill:var(--c1)}41.37%,to{fill:var(--ce)}}@keyframes c14{62.02%{fill:var(--c2)}62.04%,to{fill:var(--ce)}}@keyframes c15{30.5%{fill:var(--c1)}30.52%,to{fill:var(--ce)}}@keyframes c16{83.04%{fill:var(--c4)}83.06%,to{fill:var(--ce)}}@keyframes c17{44.74%{fill:var(--c1)}44.76%,to{fill:var(--ce)}}@keyframes c18{47.11%{fill:var(--c1)}47.13%,to{fill:var(--ce)}}@keyframes c19{31.18%{fill:var(--c1)}31.2%,to{fill:var(--ce)}}@keyframes c1a{45.41%{fill:var(--c1)}45.43%,to{fill:var(--ce)}}@keyframes c1b{45.07%{fill:var(--c1)}45.09%,to{fill:var(--ce)}}@keyframes c1c{33.55%{fill:var(--c1)}33.57%,to{fill:var(--ce)}}@keyframes c1d{31.85%{fill:var(--c1)}31.87%,to{fill:var(--ce)}}@keyframes c1e{34.23%{fill:var(--c1)}34.25%,to{fill:var(--ce)}}@keyframes c1f{35.24%{fill:var(--c1)}35.26%,to{fill:var(--ce)}}@keyframes c1g{35.58%{fill:var(--c1)}35.6%,to{fill:var(--ce)}}@keyframes c1h{33.21%{fill:var(--c1)}33.23%,to{fill:var(--ce)}}@keyframes c1i{32.19%{fill:var(--c1)}32.21%,to{fill:var(--ce)}}@keyframes c1j{34.57%{fill:var(--c1)}34.59%,to{fill:var(--ce)}}@keyframes c1k{35.92%{fill:var(--c1)}35.94%,to{fill:var(--ce)}}@keyframes c1l{32.53%{fill:var(--c1)}32.55%,to{fill:var(--ce)}}@keyframes c1m{64.74%{fill:var(--c2)}64.76%,to{fill:var(--ce)}}@keyframes c1n{37.28%{fill:var(--c1)}37.3%,to{fill:var(--ce)}}@keyframes c1o{36.94%{fill:var(--c1)}36.96%,to{fill:var(--ce)}}@keyframes c1p{38.63%{fill:var(--c1)}38.65%,to{fill:var(--ce)}}@keyframes u0{9.14%{transform:scale(0,1)}9.16%,9.48%{transform:scale(.02,1)}10.84%,9.5%{transform:scale(.04,1)}10.86%,11.52%{transform:scale(.06,1)}11.54%,14.91%{transform:scale(.08,1)}14.93%,15.92%{transform:scale(.1,1)}15.94%,16.6%{transform:scale(.13,1)}16.62%,17.96%{transform:scale(.15,1)}17.98%,18.3%{transform:scale(.17,1)}18.32%,18.63%{transform:scale(.19,1)}18.65%,18.97%{transform:scale(.21,1)}18.99%,19.65%{transform:scale(.23,1)}19.67%,20.67%{transform:scale(.25,1)}20.69%,21.01%{transform:scale(.27,1)}21.03%,21.35%{transform:scale(.29,1)}21.37%,21.68%{transform:scale(.31,1)}21.7%,22.36%{transform:scale(.33,1)}22.38%,25.41%{transform:scale(.35,1)}25.43%,25.75%{transform:scale(.38,1)}25.77%,29.14%{transform:scale(.4,1)}29.16%,29.48%{transform:scale(.42,1)}29.5%,29.82%{transform:scale(.44,1)}29.84%,30.16%{transform:scale(.46,1)}30.18%,30.5%{transform:scale(.48,1)}30.52%,31.18%{transform:scale(.5,1)}31.2%,31.85%{transform:scale(.52,1)}31.87%,32.19%{transform:scale(.54,1)}32.21%,32.53%{transform:scale(.56,1)}32.55%,33.21%{transform:scale(.58,1)}33.23%,33.55%{transform:scale(.6,1)}33.57%,34.23%{transform:scale(.63,1)}34.25%,34.57%{transform:scale(.65,1)}34.59%,35.24%{transform:scale(.67,1)}35.26%,35.58%{transform:scale(.69,1)}35.6%,35.92%{transform:scale(.71,1)}35.94%,36.94%{transform:scale(.73,1)}36.96%,37.28%{transform:scale(.75,1)}37.3%,38.63%{transform:scale(.77,1)}38.65%,41.35%{transform:scale(.79,1)}41.37%,41.68%{transform:scale(.81,1)}41.7%,42.36%{transform:scale(.83,1)}42.38%,43.72%{transform:scale(.85,1)}43.74%,44.4%{transform:scale(.88,1)}44.42%,44.74%{transform:scale(.9,1)}44.76%,45.07%{transform:scale(.92,1)}45.09%,45.41%{transform:scale(.94,1)}45.43%,47.11%{transform:scale(.96,1)}47.13%,52.19%{transform:scale(.98,1)}52.21%,to{transform:scale(1,1)}}@keyframes u1{52.53%{transform:scale(0,1)}52.55%,to{transform:scale(1,1)}}@keyframes u2{52.87%{transform:scale(0,1)}52.89%,to{transform:scale(1,1)}}@keyframes u3{53.21%{transform:scale(0,1)}53.23%,53.55%{transform:scale(.14,1)}53.57%,55.24%{transform:scale(.29,1)}55.26%,55.92%{transform:scale(.43,1)}55.94%,60.33%{transform:scale(.57,1)}60.35%,62.02%{transform:scale(.71,1)}62.04%,64.74%{transform:scale(.86,1)}64.76%,to{transform:scale(1,1)}}@keyframes u4{67.79%{transform:scale(0,1)}67.81%,71.52%{transform:scale(.5,1)}71.54%,to{transform:scale(1,1)}}@keyframes u5{72.53%{transform:scale(0,1)}72.55%,75.58%{transform:scale(.33,1)}75.6%,83.04%{transform:scale(.67,1)}83.06%,to{transform:scale(1,1)}}@keyframes s0{0%,99.66%{transform:translate(0,-16px)}.34%{transform:translate(0,0)}7.8%{transform:translate(352px,0)}12.54%,9.15%{transform:translate(352px,64px)}10.17%{transform:translate(400px,64px)}10.85%{transform:translate(400px,96px)}11.86%{transform:translate(352px,96px)}13.9%{transform:translate(416px,64px)}14.92%{transform:translate(416px,16px)}16.27%{transform:translate(480px,16px)}16.61%{transform:translate(480px,32px)}16.95%{transform:translate(496px,32px)}17.29%{transform:translate(496px,16px)}19.32%{transform:translate(592px,16px)}19.66%{transform:translate(592px,32px)}20.68%,53.9%{transform:translate(544px,32px)}22.03%{transform:translate(544px,96px)}22.37%,55.59%{transform:translate(528px,96px)}22.71%{transform:translate(528px,112px)}23.05%,50.85%{transform:translate(544px,112px)}25.42%{transform:translate(544px,0)}25.76%{transform:translate(528px,0)}26.1%{transform:translate(528px,16px)}28.47%{transform:translate(640px,16px)}29.15%{transform:translate(640px,48px)}30.85%{transform:translate(720px,48px)}31.19%{transform:translate(720px,32px)}32.54%{transform:translate(784px,32px)}32.88%{transform:translate(784px,16px)}33.56%{transform:translate(752px,16px)}34.24%{transform:translate(752px,48px)}34.58%{transform:translate(768px,48px)}34.92%{transform:translate(768px,64px)}35.25%{transform:translate(752px,64px)}35.59%{transform:translate(752px,80px)}36.95%{transform:translate(816px,80px)}37.29%{transform:translate(816px,64px)}37.63%{transform:translate(832px,64px)}38.64%{transform:translate(832px,16px)}41.36%{transform:translate(704px,16px)}41.69%{transform:translate(704px,0)}42.03%{transform:translate(688px,0)}42.37%{transform:translate(688px,16px)}42.71%{transform:translate(672px,16px)}43.73%{transform:translate(672px,64px)}44.07%{transform:translate(688px,64px)}44.41%{transform:translate(688px,80px)}45.08%{transform:translate(720px,80px)}45.42%{transform:translate(720px,64px)}45.76%{transform:translate(736px,64px)}46.1%{transform:translate(736px,80px)}46.78%{transform:translate(704px,80px)}47.46%{transform:translate(704px,112px)}51.86%,54.58%{transform:translate(544px,64px)}52.54%{transform:translate(512px,64px)}53.22%{transform:translate(512px,32px)}54.92%{transform:translate(528px,64px)}55.93%{transform:translate(512px,96px)}56.27%{transform:translate(512px,112px)}60%{transform:translate(688px,112px)}61.36%{transform:translate(688px,48px)}61.69%,83.39%{transform:translate(704px,48px)}62.03%{transform:translate(704px,32px)}64.41%{transform:translate(816px,32px)}64.75%{transform:translate(816px,48px)}65.08%{transform:translate(800px,48px)}65.42%{transform:translate(800px,32px)}71.19%{transform:translate(528px,32px)}71.53%{transform:translate(528px,48px)}71.86%{transform:translate(512px,48px)}72.54%{transform:translate(512px,80px)}75.59%{transform:translate(368px,80px)}75.93%{transform:translate(368px,64px)}83.05%{transform:translate(704px,64px)}97.29%{transform:translate(48px,48px)}98.64%{transform:translate(48px,-16px)}}@keyframes s1{0%,99.66%{transform:translate(16px,-16px)}.34%{transform:translate(0,-16px)}.68%{transform:translate(0,0)}8.14%{transform:translate(352px,0)}12.88%,9.49%{transform:translate(352px,64px)}10.51%{transform:translate(400px,64px)}11.19%{transform:translate(400px,96px)}12.2%{transform:translate(352px,96px)}14.24%{transform:translate(416px,64px)}15.25%{transform:translate(416px,16px)}16.61%{transform:translate(480px,16px)}16.95%{transform:translate(480px,32px)}17.29%{transform:translate(496px,32px)}17.63%{transform:translate(496px,16px)}19.66%{transform:translate(592px,16px)}20%{transform:translate(592px,32px)}21.02%,54.24%{transform:translate(544px,32px)}22.37%{transform:translate(544px,96px)}22.71%,55.93%{transform:translate(528px,96px)}23.05%{transform:translate(528px,112px)}23.39%,51.19%{transform:translate(544px,112px)}25.76%{transform:translate(544px,0)}26.1%{transform:translate(528px,0)}26.44%{transform:translate(528px,16px)}28.81%{transform:translate(640px,16px)}29.49%{transform:translate(640px,48px)}31.19%{transform:translate(720px,48px)}31.53%{transform:translate(720px,32px)}32.88%{transform:translate(784px,32px)}33.22%{transform:translate(784px,16px)}33.9%{transform:translate(752px,16px)}34.58%{transform:translate(752px,48px)}34.92%{transform:translate(768px,48px)}35.25%{transform:translate(768px,64px)}35.59%{transform:translate(752px,64px)}35.93%{transform:translate(752px,80px)}37.29%{transform:translate(816px,80px)}37.63%{transform:translate(816px,64px)}37.97%{transform:translate(832px,64px)}38.98%{transform:translate(832px,16px)}41.69%{transform:translate(704px,16px)}42.03%{transform:translate(704px,0)}42.37%{transform:translate(688px,0)}42.71%{transform:translate(688px,16px)}43.05%{transform:translate(672px,16px)}44.07%{transform:translate(672px,64px)}44.41%{transform:translate(688px,64px)}44.75%{transform:translate(688px,80px)}45.42%{transform:translate(720px,80px)}45.76%{transform:translate(720px,64px)}46.1%{transform:translate(736px,64px)}46.44%{transform:translate(736px,80px)}47.12%{transform:translate(704px,80px)}47.8%{transform:translate(704px,112px)}52.2%,54.92%{transform:translate(544px,64px)}52.88%{transform:translate(512px,64px)}53.56%{transform:translate(512px,32px)}55.25%{transform:translate(528px,64px)}56.27%{transform:translate(512px,96px)}56.61%{transform:translate(512px,112px)}60.34%{transform:translate(688px,112px)}61.69%{transform:translate(688px,48px)}62.03%,83.73%{transform:translate(704px,48px)}62.37%{transform:translate(704px,32px)}64.75%{transform:translate(816px,32px)}65.08%{transform:translate(816px,48px)}65.42%{transform:translate(800px,48px)}65.76%{transform:translate(800px,32px)}71.53%{transform:translate(528px,32px)}71.86%{transform:translate(528px,48px)}72.2%{transform:translate(512px,48px)}72.88%{transform:translate(512px,80px)}75.93%{transform:translate(368px,80px)}76.27%{transform:translate(368px,64px)}83.39%{transform:translate(704px,64px)}97.63%{transform:translate(48px,48px)}98.98%{transform:translate(48px,-16px)}}@keyframes s2{0%,99.66%{transform:translate(32px,-16px)}.68%{transform:translate(0,-16px)}1.02%{transform:translate(0,0)}8.47%{transform:translate(352px,0)}13.22%,9.83%{transform:translate(352px,64px)}10.85%{transform:translate(400px,64px)}11.53%{transform:translate(400px,96px)}12.54%{transform:translate(352px,96px)}14.58%{transform:translate(416px,64px)}15.59%{transform:translate(416px,16px)}16.95%{transform:translate(480px,16px)}17.29%{transform:translate(480px,32px)}17.63%{transform:translate(496px,32px)}17.97%{transform:translate(496px,16px)}20%{transform:translate(592px,16px)}20.34%{transform:translate(592px,32px)}21.36%,54.58%{transform:translate(544px,32px)}22.71%{transform:translate(544px,96px)}23.05%,56.27%{transform:translate(528px,96px)}23.39%{transform:translate(528px,112px)}23.73%,51.53%{transform:translate(544px,112px)}26.1%{transform:translate(544px,0)}26.44%{transform:translate(528px,0)}26.78%{transform:translate(528px,16px)}29.15%{transform:translate(640px,16px)}29.83%{transform:translate(640px,48px)}31.53%{transform:translate(720px,48px)}31.86%{transform:translate(720px,32px)}33.22%{transform:translate(784px,32px)}33.56%{transform:translate(784px,16px)}34.24%{transform:translate(752px,16px)}34.92%{transform:translate(752px,48px)}35.25%{transform:translate(768px,48px)}35.59%{transform:translate(768px,64px)}35.93%{transform:translate(752px,64px)}36.27%{transform:translate(752px,80px)}37.63%{transform:translate(816px,80px)}37.97%{transform:translate(816px,64px)}38.31%{transform:translate(832px,64px)}39.32%{transform:translate(832px,16px)}42.03%{transform:translate(704px,16px)}42.37%{transform:translate(704px,0)}42.71%{transform:translate(688px,0)}43.05%{transform:translate(688px,16px)}43.39%{transform:translate(672px,16px)}44.41%{transform:translate(672px,64px)}44.75%{transform:translate(688px,64px)}45.08%{transform:translate(688px,80px)}45.76%{transform:translate(720px,80px)}46.1%{transform:translate(720px,64px)}46.44%{transform:translate(736px,64px)}46.78%{transform:translate(736px,80px)}47.46%{transform:translate(704px,80px)}48.14%{transform:translate(704px,112px)}52.54%,55.25%{transform:translate(544px,64px)}53.22%{transform:translate(512px,64px)}53.9%{transform:translate(512px,32px)}55.59%{transform:translate(528px,64px)}56.61%{transform:translate(512px,96px)}56.95%{transform:translate(512px,112px)}60.68%{transform:translate(688px,112px)}62.03%{transform:translate(688px,48px)}62.37%,84.07%{transform:translate(704px,48px)}62.71%{transform:translate(704px,32px)}65.08%{transform:translate(816px,32px)}65.42%{transform:translate(816px,48px)}65.76%{transform:translate(800px,48px)}66.1%{transform:translate(800px,32px)}71.86%{transform:translate(528px,32px)}72.2%{transform:translate(528px,48px)}72.54%{transform:translate(512px,48px)}73.22%{transform:translate(512px,80px)}76.27%{transform:translate(368px,80px)}76.61%{transform:translate(368px,64px)}83.73%{transform:translate(704px,64px)}97.97%{transform:translate(48px,48px)}99.32%{transform:translate(48px,-16px)}}@keyframes s3{0%,99.66%{transform:translate(48px,-16px)}1.02%{transform:translate(0,-16px)}1.36%{transform:translate(0,0)}8.81%{transform:translate(352px,0)}10.17%,13.56%{transform:translate(352px,64px)}11.19%{transform:translate(400px,64px)}11.86%{transform:translate(400px,96px)}12.88%{transform:translate(352px,96px)}14.92%{transform:translate(416px,64px)}15.93%{transform:translate(416px,16px)}17.29%{transform:translate(480px,16px)}17.63%{transform:translate(480px,32px)}17.97%{transform:translate(496px,32px)}18.31%{transform:translate(496px,16px)}20.34%{transform:translate(592px,16px)}20.68%{transform:translate(592px,32px)}21.69%,54.92%{transform:translate(544px,32px)}23.05%{transform:translate(544px,96px)}23.39%,56.61%{transform:translate(528px,96px)}23.73%{transform:translate(528px,112px)}24.07%,51.86%{transform:translate(544px,112px)}26.44%{transform:translate(544px,0)}26.78%{transform:translate(528px,0)}27.12%{transform:translate(528px,16px)}29.49%{transform:translate(640px,16px)}30.17%{transform:translate(640px,48px)}31.86%{transform:translate(720px,48px)}32.2%{transform:translate(720px,32px)}33.56%{transform:translate(784px,32px)}33.9%{transform:translate(784px,16px)}34.58%{transform:translate(752px,16px)}35.25%{transform:translate(752px,48px)}35.59%{transform:translate(768px,48px)}35.93%{transform:translate(768px,64px)}36.27%{transform:translate(752px,64px)}36.61%{transform:translate(752px,80px)}37.97%{transform:translate(816px,80px)}38.31%{transform:translate(816px,64px)}38.64%{transform:translate(832px,64px)}39.66%{transform:translate(832px,16px)}42.37%{transform:translate(704px,16px)}42.71%{transform:translate(704px,0)}43.05%{transform:translate(688px,0)}43.39%{transform:translate(688px,16px)}43.73%{transform:translate(672px,16px)}44.75%{transform:translate(672px,64px)}45.08%{transform:translate(688px,64px)}45.42%{transform:translate(688px,80px)}46.1%{transform:translate(720px,80px)}46.44%{transform:translate(720px,64px)}46.78%{transform:translate(736px,64px)}47.12%{transform:translate(736px,80px)}47.8%{transform:translate(704px,80px)}48.47%{transform:translate(704px,112px)}52.88%,55.59%{transform:translate(544px,64px)}53.56%{transform:translate(512px,64px)}54.24%{transform:translate(512px,32px)}55.93%{transform:translate(528px,64px)}56.95%{transform:translate(512px,96px)}57.29%{transform:translate(512px,112px)}61.02%{transform:translate(688px,112px)}62.37%{transform:translate(688px,48px)}62.71%,84.41%{transform:translate(704px,48px)}63.05%{transform:translate(704px,32px)}65.42%{transform:translate(816px,32px)}65.76%{transform:translate(816px,48px)}66.1%{transform:translate(800px,48px)}66.44%{transform:translate(800px,32px)}72.2%{transform:translate(528px,32px)}72.54%{transform:translate(528px,48px)}72.88%{transform:translate(512px,48px)}73.56%{transform:translate(512px,80px)}76.61%{transform:translate(368px,80px)}76.95%{transform:translate(368px,64px)}84.07%{transform:translate(704px,64px)}98.31%{transform:translate(48px,48px)}}:root{--cb:#1b1f230a;--cs:purple;--ce:#ebedf0;--c0:#ebedf0;--c1:#9be9a8;--c2:#40c463;--c3:#30a14e;--c4:#216e39}.c{shape-rendering:geometricPrecision;fill:var(--ce);stroke-width:1px;stroke:var(--cb);animation:none 29500ms linear infinite}.c.c0,.c.c1{fill:var(--c1);animation-name:c0}.c.c1{animation-name:c1}.c.c2{fill:var(--c4);animation-name:c2}.c.c3,.c.c4{fill:var(--c1);animation-name:c3}.c.c4{animation-name:c4}.c.c5,.c.c6,.c.c7{fill:var(--c1);animation-name:c5}.c.c6,.c.c7{animation-name:c6}.c.c7{animation-name:c7}.c.c8{fill:var(--c2);animation-name:c8}.c.c9{fill:var(--c1);animation-name:c9}.c.ca{fill:var(--c2);animation-name:ca}.c.cb{fill:var(--c4);animation-name:cb}.c.cc{fill:var(--c2);animation-name:cc}.c.cd,.c.ce{fill:var(--c1);animation-name:cd}.c.ce{animation-name:ce}.c.cf{fill:var(--c2);animation-name:cf}.c.cg{fill:var(--c3);animation-name:cg}.c.ch{fill:var(--c1);animation-name:ch}.c.ci{fill:var(--c2);animation-name:ci}.c.cj,.c.ck,.c.cl{fill:var(--c1);animation-name:cj}.c.ck,.c.cl{animation-name:ck}.c.cl{animation-name:cl}.c.cm,.c.cn,.c.co{fill:var(--c1);animation-name:cm}.c.cn,.c.co{animation-name:cn}.c.co{animation-name:co}.c.cp,.c.cq,.c.cr{fill:var(--c1);animation-name:cp}.c.cq,.c.cr{animation-name:cq}.c.cr{animation-name:cr}.c.cs,.c.ct,.c.cu{fill:var(--c1);animation-name:cs}.c.ct,.c.cu{animation-name:ct}.c.cu{animation-name:cu}.c.cv,.c.cw,.c.cx{fill:var(--c1);animation-name:cv}.c.cw,.c.cx{animation-name:cw}.c.cx{animation-name:cx}.c.cy{fill:var(--c3);animation-name:cy}.c.c10,.c.cz{fill:var(--c1);animation-name:cz}.c.c10{animation-name:c10}.c.c11{fill:var(--c2);animation-name:c11}.c.c12,.c.c13{fill:var(--c1);animation-name:c12}.c.c13{animation-name:c13}.c.c14{fill:var(--c2);animation-name:c14}.c.c15{fill:var(--c1);animation-name:c15}.c.c16{fill:var(--c4);animation-name:c16}.c.c17,.c.c18,.c.c19{fill:var(--c1);animation-name:c17}.c.c18,.c.c19{animation-name:c18}.c.c19{animation-name:c19}.c.c1a,.c.c1b,.c.c1c{fill:var(--c1);animation-name:c1a}.c.c1b,.c.c1c{animation-name:c1b}.c.c1c{animation-name:c1c}.c.c1d,.c.c1e,.c.c1f{fill:var(--c1);animation-name:c1d}.c.c1e,.c.c1f{animation-name:c1e}.c.c1f{animation-name:c1f}.c.c1g,.c.c1h,.c.c1i{fill:var(--c1);animation-name:c1g}.c.c1h,.c.c1i{animation-name:c1h}.c.c1i{animation-name:c1i}.c.c1j,.c.c1k,.c.c1l{fill:var(--c1);animation-name:c1j}.c.c1k,.c.c1l{animation-name:c1k}.c.c1l{animation-name:c1l}.c.c1m{fill:var(--c2);animation-name:c1m}.c.c1n,.c.c1o,.c.c1p{fill:var(--c1);animation-name:c1n}.c.c1o,.c.c1p{animation-name:c1o}.c.c1p{animation-name:c1p}.s,.u{animation:none linear 29500ms infinite}.u,.u.u0{transform-origin:0 0}.u{transform:scale(0,1)}.u.u0{fill:var(--c1);animation-name:u0}.u.u1{fill:var(--c2);animation-name:u1;transform-origin:656.5px 0}.u.u2{fill:var(--c1);animation-name:u2;transform-origin:670.2px 0}.u.u3{fill:var(--c2);animation-name:u3;transform-origin:683.9px 0}.u.u4{fill:var(--c3);animation-name:u4;transform-origin:779.6px 0}.u.u5{fill:var(--c4);animation-name:u5;transform-origin:807px 0}.s{shape-rendering:geometricPrecision;fill:var(--cs)}.s.s0{transform:translate(0,-16px);animation-name:s0}.s.s1{transform:translate(16px,-16px);animation-name:s1}.s.s2{transform:translate(32px,-16px);animation-name:s2}.s.s3{transform:translate(48px,-16px);animation-name:s3}</style><rect class="c" x="2" y="2" rx="2" ry="2" width="12" height="12"/><rect class="c" x="2" y="18" rx="2" ry="2" width="12" height="12"/><rect class="c" x="2" y="34" rx="2" ry="2" width="12" height="12"/><rect class="c" x="2" y="50" rx="2" ry="2" width="12" height="12"/><rect class="c" x="2" y="66" rx="2" ry="2" width="12" height="12"/><rect class="c" x="2" y="82" rx="2" ry="2" width="12" height="12"/><rect class="c" x="2" y="98" rx="2" ry="2" width="12" height="12"/><rect class="c" x="18" y="2" rx="2" ry="2" width="12" height="12"/><rect class="c" x="18" y="18" rx="2" ry="2" width="12" height="12"/><rect class="c" x="18" y="34" rx="2" ry="2" width="12" height="12"/><rect class="c" x="18" y="50" rx="2" ry="2" width="12" height="12"/><rect class="c" x="18" y="66" rx="2" ry="2" width="12" height="12"/><rect class="c" x="18" y="82" rx="2" ry="2" width="12" height="12"/><rect class="c" x="18" y="98" rx="2" ry="2" width="12" height="12"/><rect class="c" x="34" y="2" rx="2" ry="2" width="12" height="12"/><rect class="c" x="34" y="18" rx="2" ry="2" width="12" height="12"/><rect class="c" x="34" y="34" rx="2" ry="2" width="12" height="12"/><rect class="c" x="34" y="50" rx="2" ry="2" width="12" height="12"/><rect class="c" x="34" y="66" rx="2" ry="2" width="12" height="12"/><rect class="c" x="34" y="82" rx="2" ry="2" width="12" height="12"/><rect class="c" x="34" y="98" rx="2" ry="2" width="12" height="12"/><rect class="c" x="50" y="2" rx="2" ry="2" width="12" height="12"/><rect class="c" x="50" y="18" rx="2" ry="2" width="12" height="12"/><rect class="c" x="50" y="34" rx="2" ry="2" width="12" height="12"/><rect class="c" x="50" y="50" rx="2" ry="2" width="12" height="12"/><rect class="c" x="50" y="66" rx="2" ry="2" width="12" height="12"/><rect class="c" x="50" y="82" rx="2" ry="2" width="12" height="12"/><rect class="c" x="50" y="98" rx="2" ry="2" width="12" height="12"/><rect class="c" x="66" y="2" rx="2" ry="2" width="12" height="12"/><rect class="c" x="66" y="18" rx="2" ry="2" width="12" height="12"/><rect class="c" x="66" y="34" rx="2" ry="2" width="12" height="12"/><rect class="c" x="66" y="50" rx="2" ry="2" width="12" height="12"/><rect class="c" x="66" y="66" rx="2" ry="2" width="12" height="12"/><rect class="c" x="66" y="82" rx="2" ry="2" width="12" height="12"/><rect class="c" x="66" y="98" rx="2" ry="2" width="12" height="12"/><rect class="c" x="82" y="2" rx="2" ry="2" width="12" height="12"/><rect class="c" x="82" y="18" rx="2" ry="2" width="12" height="12"/><rect class="c" x="82" y="34" rx="2" ry="2" width="12" height="12"/><rect class="c" x="82" y="50" rx="2" ry="2" width="12" height="12"/><rect class="c" x="82" y="66" rx="2" ry="2" width="12" height="12"/><rect class="c" x="82" y="82" rx="2" ry="2" width="12" height="12"/><rect class="c" x="82" y="98" rx="2" ry="2" width="12" height="12"/><rect class="c" x="98" y="2" rx="2" ry="2" width="12" height="12"/><rect class="c" x="98" y="18" rx="2" ry="2" width="12" height="12"/><rect class="c" x="98" y="34" rx="2" ry="2" width="12" height="12"/><rect class="c" x="98" y="50" rx="2" ry="2" width="12" height="12"/><rect class="c" x="98" y="66" rx="2" ry="2" width="12" height="12"/><rect class="c" x="98" y="82" rx="2" ry="2" width="12" height="12"/><rect class="c" x="98" y="98" rx="2" ry="2" width="12" height="12"/><rect class="c" x="114" y="2" rx="2" ry="2" width="12" height="12"/><rect class="c" x="114" y="18" rx="2" ry="2" width="12" height="12"/><rect class="c" x="114" y="34" rx="2" ry="2" width="12" height="12"/><rect class="c" x="114" y="50" rx="2" ry="2" width="12" height="12"/><rect class="c" x="114" y="66" rx="2" ry="2" width="12" height="12"/><rect class="c" x="114" y="82" rx="2" ry="2" width="12" height="12"/><rect class="c" x="114" y="98" rx="2" ry="2" width="12" height="12"/><rect class="c" x="130" y="2" rx="2" ry="2" width="12" height="12"/><rect class="c" x="130" y="18" rx="2" ry="2" width="12" height="12"/><rect class="c" x="130" y="34" rx="2" ry="2" width="12" height="12"/><rect class="c" x="130" y="50" rx="2" ry="2" width="12" height="12"/><rect class="c" x="130" y="66" rx="2" ry="2" width="12" height="12"/><rect class="c" x="130" y="82" rx="2" ry="2" width="12" height="12"/><rect class="c" x="130" y="98" rx="2" ry="2" width="12" height="12"/><rect class="c" x="146" y="2" rx="2" ry="2" width="12" height="12"/><rect class="c" x="146" y="18" rx="2" ry="2" width="12" height="12"/><rect class="c" x="146" y="34" rx="2" ry="2" width="12" height="12"/><rect class="c" x="146" y="50" rx="2" ry="2" width="12" height="12"/><rect class="c" x="146" y="66" rx="2" ry="2" width="12" height="12"/><rect class="c" x="146" y="82" rx="2" ry="2" width="12" height="12"/><rect class="c" x="146" y="98" rx="2" ry="2" width="12" height="12"/><rect class="c" x="162" y="2" rx="2" ry="2" width="12" height="12"/><rect class="c" x="162" y="18" rx="2" ry="2" width="12" height="12"/><rect class="c" x="162" y="34" rx="2" ry="2" width="12" height="12"/><rect class="c" x="162" y="50" rx="2" ry="2" width="12" height="12"/><rect class="c" x="162" y="66" rx="2" ry="2" width="12" height="12"/><rect class="c" x="162" y="82" rx="2" ry="2" width="12" height="12"/><rect class="c" x="162" y="98" rx="2" ry="2" width="12" height="12"/><rect class="c" x="178" y="2" rx="2" ry="2" width="12" height="12"/><rect class="c" x="178" y="18" rx="2" ry="2" width="12" height="12"/><rect class="c" x="178" y="34" rx="2" ry="2" width="12" height="12"/><rect class="c" x="178" y="50" rx="2" ry="2" width="12" height="12"/><rect class="c" x="178" y="66" rx="2" ry="2" width="12" height="12"/><rect class="c" x="178" y="82" rx="2" ry="2" width="12" height="12"/><rect class="c" x="178" y="98" rx="2" ry="2" width="12" height="12"/><rect class="c" x="194" y="2" rx="2" ry="2" width="12" height="12"/><rect class="c" x="194" y="18" rx="2" ry="2" width="12" height="12"/><rect class="c" x="194" y="34" rx="2" ry="2" width="12" height="12"/><rect class="c" x="194" y="50" rx="2" ry="2" width="12" height="12"/><rect class="c" x="194" y="66" rx="2" ry="2" width="12" height="12"/><rect class="c" x="194" y="82" rx="2" ry="2" width="12" height="12"/><rect class="c" x="194" y="98" rx="2" ry="2" width="12" height="12"/><rect class="c" x="210" y="2" rx="2" ry="2" width="12" height="12"/><rect class="c" x="210" y="18" rx="2" ry="2" width="12" height="12"/><rect class="c" x="210" y="34" rx="2" ry="2" width="12" height="12"/><rect class="c" x="210" y="50" rx="2" ry="2" width="12" height="12"/><rect class="c" x="210" y="66" rx="2" ry="2" width="12" height="12"/><rect class="c" x="210" y="82" rx="2" ry="2" width="12" height="12"/><rect class="c" x="210" y="98" rx="2" ry="2" width="12" height="12"/><rect class="c" x="226" y="2" rx="2" ry="2" width="12" height="12"/><rect class="c" x="226" y="18" rx="2" ry="2" width="12" height="12"/><rect class="c" x="226" y="34" rx="2" ry="2" width="12" height="12"/><rect class="c" x="226" y="50" rx="2" ry="2" width="12" height="12"/><rect class="c" x="226" y="66" rx="2" ry="2" width="12" height="12"/><rect class="c" x="226" y="82" rx="2" ry="2" width="12" height="12"/><rect class="c" x="226" y="98" rx="2" ry="2" width="12" height="12"/><rect class="c" x="242" y="2" rx="2" ry="2" width="12" height="12"/><rect class="c" x="242" y="18" rx="2" ry="2" width="12" height="12"/><rect class="c" x="242" y="34" rx="2" ry="2" width="12" height="12"/><rect class="c" x="242" y="50" rx="2" ry="2" width="12" height="12"/><rect class="c" x="242" y="66" rx="2" ry="2" width="12" height="12"/><rect class="c" x="242" y="82" rx="2" ry="2" width="12" height="12"/><rect class="c" x="242" y="98" rx="2" ry="2" width="12" height="12"/><rect class="c" x="258" y="2" rx="2" ry="2" width="12" height="12"/><rect class="c" x="258" y="18" rx="2" ry="2" width="12" height="12"/><rect class="c" x="258" y="34" rx="2" ry="2" width="12" height="12"/><rect class="c" x="258" y="50" rx="2" ry="2" width="12" height="12"/><rect class="c" x="258" y="66" rx="2" ry="2" width="12" height="12"/><rect class="c" x="258" y="82" rx="2" ry="2" width="12" height="12"/><rect class="c" x="258" y="98" rx="2" ry="2" width="12" height="12"/><rect class="c" x="274" y="2" rx="2" ry="2" width="12" height="12"/><rect class="c" x="274" y="18" rx="2" ry="2" width="12" height="12"/><rect class="c" x="274" y="34" rx="2" ry="2" width="12" height="12"/><rect class="c" x="274" y="50" rx="2" ry="2" width="12" height="12"/><rect class="c" x="274" y="66" rx="2" ry="2" width="12" height="12"/><rect class="c" x="274" y="82" rx="2" ry="2" width="12" height="12"/><rect class="c" x="274" y="98" rx="2" ry="2" width="12" height="12"/><rect class="c" x="290" y="2" rx="2" ry="2" width="12" height="12"/><rect class="c" x="290" y="18" rx="2" ry="2" width="12" height="12"/><rect class="c" x="290" y="34" rx="2" ry="2" width="12" height="12"/><rect class="c" x="290" y="50" rx="2" ry="2" width="12" height="12"/><rect class="c" x="290" y="66" rx="2" ry="2" width="12" height="12"/><rect class="c" x="290" y="82" rx="2" ry="2" width="12" height="12"/><rect class="c" x="290" y="98" rx="2" ry="2" width="12" height="12"/><rect class="c" x="306" y="2" rx="2" ry="2" width="12" height="12"/><rect class="c" x="306" y="18" rx="2" ry="2" width="12" height="12"/><rect class="c" x="306" y="34" rx="2" ry="2" width="12" height="12"/><rect class="c" x="306" y="50" rx="2" ry="2" width="12" height="12"/><rect class="c" x="306" y="66" rx="2" ry="2" width="12" height="12"/><rect class="c" x="306" y="82" rx="2" ry="2" width="12" height="12"/><rect class="c" x="306" y="98" rx="2" ry="2" width="12" height="12"/><rect class="c" x="322" y="2" rx="2" ry="2" width="12" height="12"/><rect class="c" x="322" y="18" rx="2" ry="2" width="12" height="12"/><rect class="c" x="322" y="34" rx="2" ry="2" width="12" height="12"/><rect class="c" x="322" y="50" rx="2" ry="2" width="12" height="12"/><rect class="c" x="322" y="66" rx="2" ry="2" width="12" height="12"/><rect class="c" x="322" y="82" rx="2" ry="2" width="12" height="12"/><rect class="c" x="322" y="98" rx="2" ry="2" width="12" height="12"/><rect class="c" x="338" y="2" rx="2" ry="2" width="12" height="12"/><rect class="c" x="338" y="18" rx="2" ry="2" width="12" height="12"/><rect class="c" x="338" y="34" rx="2" ry="2" width="12" height="12"/><rect class="c" x="338" y="50" rx="2" ry="2" width="12" height="12"/><rect class="c" x="338" y="66" rx="2" ry="2" width="12" height="12"/><rect class="c" x="338" y="82" rx="2" ry="2" width="12" height="12"/><rect class="c" x="338" y="98" rx="2" ry="2" width="12" height="12"/><rect class="c" x="354" y="2" rx="2" ry="2" width="12" height="12"/><rect class="c" x="354" y="18" rx="2" ry="2" width="12" height="12"/><rect class="c" x="354" y="34" rx="2" ry="2" width="12" height="12"/><rect class="c" x="354" y="50" rx="2" ry="2" width="12" height="12"/><rect class="c c0" x="354" y="66" rx="2" ry="2" width="12" height="12"/><rect class="c" x="354" y="82" rx="2" ry="2" width="12" height="12"/><rect class="c" x="354" y="98" rx="2" ry="2" width="12" height="12"/><rect class="c" x="370" y="2" rx="2" ry="2" width="12" height="12"/><rect class="c" x="370" y="18" rx="2" ry="2" width="12" height="12"/><rect class="c" x="370" y="34" rx="2" ry="2" width="12" height="12"/><rect class="c" x="370" y="50" rx="2" ry="2" width="12" height="12"/><rect class="c c1" x="370" y="66" rx="2" ry="2" width="12" height="12"/><rect class="c c2" x="370" y="82" rx="2" ry="2" width="12" height="12"/><rect class="c c3" x="370" y="98" rx="2" ry="2" width="12" height="12"/><rect class="c" x="386" y="2" rx="2" ry="2" width="12" height="12"/><rect class="c" x="386" y="18" rx="2" ry="2" width="12" height="12"/><rect class="c" x="386" y="34" rx="2" ry="2" width="12" height="12"/><rect class="c" x="386" y="50" rx="2" ry="2" width="12" height="12"/><rect class="c" x="386" y="66" rx="2" ry="2" width="12" height="12"/><rect class="c" x="386" y="82" rx="2" ry="2" width="12" height="12"/><rect class="c" x="386" y="98" rx="2" ry="2" width="12" height="12"/><rect class="c" x="402" y="2" rx="2" ry="2" width="12" height="12"/><rect class="c" x="402" y="18" rx="2" ry="2" width="12" height="12"/><rect class="c" x="402" y="34" rx="2" ry="2" width="12" height="12"/><rect class="c" x="402" y="50" rx="2" ry="2" width="12" height="12"/><rect class="c" x="402" y="66" rx="2" ry="2" width="12" height="12"/><rect class="c" x="402" y="82" rx="2" ry="2" width="12" height="12"/><rect class="c c4" x="402" y="98" rx="2" ry="2" width="12" height="12"/><rect class="c" x="418" y="2" rx="2" ry="2" width="12" height="12"/><rect class="c c5" x="418" y="18" rx="2" ry="2" width="12" height="12"/><rect class="c" x="418" y="34" rx="2" ry="2" width="12" height="12"/><rect class="c" x="418" y="50" rx="2" ry="2" width="12" height="12"/><rect class="c" x="418" y="66" rx="2" ry="2" width="12" height="12"/><rect class="c" x="418" y="82" rx="2" ry="2" width="12" height="12"/><rect class="c" x="418" y="98" rx="2" ry="2" width="12" height="12"/><rect class="c" x="434" y="2" rx="2" ry="2" width="12" height="12"/><rect class="c" x="434" y="18" rx="2" ry="2" width="12" height="12"/><rect class="c" x="434" y="34" rx="2" ry="2" width="12" height="12"/><rect class="c" x="434" y="50" rx="2" ry="2" width="12" height="12"/><rect class="c" x="434" y="66" rx="2" ry="2" width="12" height="12"/><rect class="c" x="434" y="82" rx="2" ry="2" width="12" height="12"/><rect class="c" x="434" y="98" rx="2" ry="2" width="12" height="12"/><rect class="c" x="450" y="2" rx="2" ry="2" width="12" height="12"/><rect class="c" x="450" y="18" rx="2" ry="2" width="12" height="12"/><rect class="c" x="450" y="34" rx="2" ry="2" width="12" height="12"/><rect class="c" x="450" y="50" rx="2" ry="2" width="12" height="12"/><rect class="c" x="450" y="66" rx="2" ry="2" width="12" height="12"/><rect class="c" x="450" y="82" rx="2" ry="2" width="12" height="12"/><rect class="c" x="450" y="98" rx="2" ry="2" width="12" height="12"/><rect class="c" x="466" y="2" rx="2" ry="2" width="12" height="12"/><rect class="c c6" x="466" y="18" rx="2" ry="2" width="12" height="12"/><rect class="c" x="466" y="34" rx="2" ry="2" width="12" height="12"/><rect class="c" x="466" y="50" rx="2" ry="2" width="12" height="12"/><rect class="c" x="466" y="66" rx="2" ry="2" width="12" height="12"/><rect class="c" x="466" y="82" rx="2" ry="2" width="12" height="12"/><rect class="c" x="466" y="98" rx="2" ry="2" width="12" height="12"/><rect class="c" x="482" y="2" rx="2" ry="2" width="12" height="12"/><rect class="c" x="482" y="18" rx="2" ry="2" width="12" height="12"/><rect class="c c7" x="482" y="34" rx="2" ry="2" width="12" height="12"/><rect class="c" x="482" y="50" rx="2" ry="2" width="12" height="12"/><rect class="c" x="482" y="66" rx="2" ry="2" width="12" height="12"/><rect class="c" x="482" y="82" rx="2" ry="2" width="12" height="12"/><rect class="c" x="482" y="98" rx="2" ry="2" width="12" height="12"/><rect class="c" x="498" y="2" rx="2" ry="2" width="12" height="12"/><rect class="c" x="498" y="18" rx="2" ry="2" width="12" height="12"/><rect class="c" x="498" y="34" rx="2" ry="2" width="12" height="12"/><rect class="c" x="498" y="50" rx="2" ry="2" width="12" height="12"/><rect class="c" x="498" y="66" rx="2" ry="2" width="12" height="12"/><rect class="c" x="498" y="82" rx="2" ry="2" width="12" height="12"/><rect class="c" x="498" y="98" rx="2" ry="2" width="12" height="12"/><rect class="c" x="514" y="2" rx="2" ry="2" width="12" height="12"/><rect class="c" x="514" y="18" rx="2" ry="2" width="12" height="12"/><rect class="c c8" x="514" y="34" rx="2" ry="2" width="12" height="12"/><rect class="c c9" x="514" y="50" rx="2" ry="2" width="12" height="12"/><rect class="c ca" x="514" y="66" rx="2" ry="2" width="12" height="12"/><rect class="c cb" x="514" y="82" rx="2" ry="2" width="12" height="12"/><rect class="c cc" x="514" y="98" rx="2" ry="2" width="12" height="12"/><rect class="c cd" x="530" y="2" rx="2" ry="2" width="12" height="12"/><rect class="c ce" x="530" y="18" rx="2" ry="2" width="12" height="12"/><rect class="c cf" x="530" y="34" rx="2" ry="2" width="12" height="12"/><rect class="c cg" x="530" y="50" rx="2" ry="2" width="12" height="12"/><rect class="c ch" x="530" y="66" rx="2" ry="2" width="12" height="12"/><rect class="c ci" x="530" y="82" rx="2" ry="2" width="12" height="12"/><rect class="c cj" x="530" y="98" rx="2" ry="2" width="12" height="12"/><rect class="c ck" x="546" y="2" rx="2" ry="2" width="12" height="12"/><rect class="c cl" x="546" y="18" rx="2" ry="2" width="12" height="12"/><rect class="c cm" x="546" y="34" rx="2" ry="2" width="12" height="12"/><rect class="c cn" x="546" y="50" rx="2" ry="2" width="12" height="12"/><rect class="c co" x="546" y="66" rx="2" ry="2" width="12" height="12"/><rect class="c cp" x="546" y="82" rx="2" ry="2" width="12" height="12"/><rect class="c" x="546" y="98" rx="2" ry="2" width="12" height="12"/><rect class="c" x="562" y="2" rx="2" ry="2" width="12" height="12"/><rect class="c cq" x="562" y="18" rx="2" ry="2" width="12" height="12"/><rect class="c" x="562" y="34" rx="2" ry="2" width="12" height="12"/><rect class="c" x="562" y="50" rx="2" ry="2" width="12" height="12"/><rect class="c" x="562" y="66" rx="2" ry="2" width="12" height="12"/><rect class="c" x="562" y="82" rx="2" ry="2" width="12" height="12"/><rect class="c" x="562" y="98" rx="2" ry="2" width="12" height="12"/><rect class="c" x="578" y="2" rx="2" ry="2" width="12" height="12"/><rect class="c cr" x="578" y="18" rx="2" ry="2" width="12" height="12"/><rect class="c" x="578" y="34" rx="2" ry="2" width="12" height="12"/><rect class="c" x="578" y="50" rx="2" ry="2" width="12" height="12"/><rect class="c" x="578" y="66" rx="2" ry="2" width="12" height="12"/><rect class="c" x="578" y="82" rx="2" ry="2" width="12" height="12"/><rect class="c" x="578" y="98" rx="2" ry="2" width="12" height="12"/><rect class="c" x="594" y="2" rx="2" ry="2" width="12" height="12"/><rect class="c" x="594" y="18" rx="2" ry="2" width="12" height="12"/><rect class="c cs" x="594" y="34" rx="2" ry="2" width="12" height="12"/><rect class="c" x="594" y="50" rx="2" ry="2" width="12" height="12"/><rect class="c" x="594" y="66" rx="2" ry="2" width="12" height="12"/><rect class="c" x="594" y="82" rx="2" ry="2" width="12" height="12"/><rect class="c" x="594" y="98" rx="2" ry="2" width="12" height="12"/><rect class="c" x="610" y="2" rx="2" ry="2" width="12" height="12"/><rect class="c" x="610" y="18" rx="2" ry="2" width="12" height="12"/><rect class="c" x="610" y="34" rx="2" ry="2" width="12" height="12"/><rect class="c" x="610" y="50" rx="2" ry="2" width="12" height="12"/><rect class="c" x="610" y="66" rx="2" ry="2" width="12" height="12"/><rect class="c" x="610" y="82" rx="2" ry="2" width="12" height="12"/><rect class="c" x="610" y="98" rx="2" ry="2" width="12" height="12"/><rect class="c" x="626" y="2" rx="2" ry="2" width="12" height="12"/><rect class="c" x="626" y="18" rx="2" ry="2" width="12" height="12"/><rect class="c" x="626" y="34" rx="2" ry="2" width="12" height="12"/><rect class="c" x="626" y="50" rx="2" ry="2" width="12" height="12"/><rect class="c" x="626" y="66" rx="2" ry="2" width="12" height="12"/><rect class="c" x="626" y="82" rx="2" ry="2" width="12" height="12"/><rect class="c" x="626" y="98" rx="2" ry="2" width="12" height="12"/><rect class="c" x="642" y="2" rx="2" ry="2" width="12" height="12"/><rect class="c" x="642" y="18" rx="2" ry="2" width="12" height="12"/><rect class="c" x="642" y="34" rx="2" ry="2" width="12" height="12"/><rect class="c ct" x="642" y="50" rx="2" ry="2" width="12" height="12"/><rect class="c" x="642" y="66" rx="2" ry="2" width="12" height="12"/><rect class="c" x="642" y="82" rx="2" ry="2" width="12" height="12"/><rect class="c" x="642" y="98" rx="2" ry="2" width="12" height="12"/><rect class="c" x="658" y="2" rx="2" ry="2" width="12" height="12"/><rect class="c" x="658" y="18" rx="2" ry="2" width="12" height="12"/><rect class="c" x="658" y="34" rx="2" ry="2" width="12" height="12"/><rect class="c cu" x="658" y="50" rx="2" ry="2" width="12" height="12"/><rect class="c" x="658" y="66" rx="2" ry="2" width="12" height="12"/><rect class="c" x="658" y="82" rx="2" ry="2" width="12" height="12"/><rect class="c" x="658" y="98" rx="2" ry="2" width="12" height="12"/><rect class="c" x="674" y="2" rx="2" ry="2" width="12" height="12"/><rect class="c" x="674" y="18" rx="2" ry="2" width="12" height="12"/><rect class="c" x="674" y="34" rx="2" ry="2" width="12" height="12"/><rect class="c cv" x="674" y="50" rx="2" ry="2" width="12" height="12"/><rect class="c cw" x="674" y="66" rx="2" ry="2" width="12" height="12"/><rect class="c" x="674" y="82" rx="2" ry="2" width="12" height="12"/><rect class="c" x="674" y="98" rx="2" ry="2" width="12" height="12"/><rect class="c" x="690" y="2" rx="2" ry="2" width="12" height="12"/><rect class="c cx" x="690" y="18" rx="2" ry="2" width="12" height="12"/><rect class="c cy" x="690" y="34" rx="2" ry="2" width="12" height="12"/><rect class="c cz" x="690" y="50" rx="2" ry="2" width="12" height="12"/><rect class="c" x="690" y="66" rx="2" ry="2" width="12" height="12"/><rect class="c c10" x="690" y="82" rx="2" ry="2" width="12" height="12"/><rect class="c c11" x="690" y="98" rx="2" ry="2" width="12" height="12"/><rect class="c c12" x="706" y="2" rx="2" ry="2" width="12" height="12"/><rect class="c c13" x="706" y="18" rx="2" ry="2" width="12" height="12"/><rect class="c c14" x="706" y="34" rx="2" ry="2" width="12" height="12"/><rect class="c c15" x="706" y="50" rx="2" ry="2" width="12" height="12"/><rect class="c c16" x="706" y="66" rx="2" ry="2" width="12" height="12"/><rect class="c c17" x="706" y="82" rx="2" ry="2" width="12" height="12"/><rect class="c c18" x="706" y="98" rx="2" ry="2" width="12" height="12"/><rect class="c" x="722" y="2" rx="2" ry="2" width="12" height="12"/><rect class="c" x="722" y="18" rx="2" ry="2" width="12" height="12"/><rect class="c c19" x="722" y="34" rx="2" ry="2" width="12" height="12"/><rect class="c" x="722" y="50" rx="2" ry="2" width="12" height="12"/><rect class="c c1a" x="722" y="66" rx="2" ry="2" width="12" height="12"/><rect class="c c1b" x="722" y="82" rx="2" ry="2" width="12" height="12"/><rect class="c" x="722" y="98" rx="2" ry="2" width="12" height="12"/><rect class="c" x="738" y="2" rx="2" ry="2" width="12" height="12"/><rect class="c" x="738" y="18" rx="2" ry="2" width="12" height="12"/><rect class="c" x="738" y="34" rx="2" ry="2" width="12" height="12"/><rect class="c" x="738" y="50" rx="2" ry="2" width="12" height="12"/><rect class="c" x="738" y="66" rx="2" ry="2" width="12" height="12"/><rect class="c" x="738" y="82" rx="2" ry="2" width="12" height="12"/><rect class="c" x="738" y="98" rx="2" ry="2" width="12" height="12"/><rect class="c" x="754" y="2" rx="2" ry="2" width="12" height="12"/><rect class="c c1c" x="754" y="18" rx="2" ry="2" width="12" height="12"/><rect class="c c1d" x="754" y="34" rx="2" ry="2" width="12" height="12"/><rect class="c c1e" x="754" y="50" rx="2" ry="2" width="12" height="12"/><rect class="c c1f" x="754" y="66" rx="2" ry="2" width="12" height="12"/><rect class="c c1g" x="754" y="82" rx="2" ry="2" width="12" height="12"/><rect class="c" x="754" y="98" rx="2" ry="2" width="12" height="12"/><rect class="c" x="770" y="2" rx="2" ry="2" width="12" height="12"/><rect class="c c1h" x="770" y="18" rx="2" ry="2" width="12" height="12"/><rect class="c c1i" x="770" y="34" rx="2" ry="2" width="12" height="12"/><rect class="c c1j" x="770" y="50" rx="2" ry="2" width="12" height="12"/><rect class="c" x="770" y="66" rx="2" ry="2" width="12" height="12"/><rect class="c c1k" x="770" y="82" rx="2" ry="2" width="12" height="12"/><rect class="c" x="770" y="98" rx="2" ry="2" width="12" height="12"/><rect class="c" x="786" y="2" rx="2" ry="2" width="12" height="12"/><rect class="c" x="786" y="18" rx="2" ry="2" width="12" height="12"/><rect class="c c1l" x="786" y="34" rx="2" ry="2" width="12" height="12"/><rect class="c" x="786" y="50" rx="2" ry="2" width="12" height="12"/><rect class="c" x="786" y="66" rx="2" ry="2" width="12" height="12"/><rect class="c" x="786" y="82" rx="2" ry="2" width="12" height="12"/><rect class="c" x="786" y="98" rx="2" ry="2" width="12" height="12"/><rect class="c" x="802" y="2" rx="2" ry="2" width="12" height="12"/><rect class="c" x="802" y="18" rx="2" ry="2" width="12" height="12"/><rect class="c" x="802" y="34" rx="2" ry="2" width="12" height="12"/><rect class="c" x="802" y="50" rx="2" ry="2" width="12" height="12"/><rect class="c" x="802" y="66" rx="2" ry="2" width="12" height="12"/><rect class="c" x="802" y="82" rx="2" ry="2" width="12" height="12"/><rect class="c" x="802" y="98" rx="2" ry="2" width="12" height="12"/><rect class="c" x="818" y="2" rx="2" ry="2" width="12" height="12"/><rect class="c" x="818" y="18" rx="2" ry="2" width="12" height="12"/><rect class="c" x="818" y="34" rx="2" ry="2" width="12" height="12"/><rect class="c c1m" x="818" y="50" rx="2" ry="2" width="12" height="12"/><rect class="c c1n" x="818" y="66" rx="2" ry="2" width="12" height="12"/><rect class="c c1o" x="818" y="82" rx="2" ry="2" width="12" height="12"/><rect class="c" x="818" y="98" rx="2" ry="2" width="12" height="12"/><rect class="c" x="834" y="2" rx="2" ry="2" width="12" height="12"/><rect class="c c1p" x="834" y="18" rx="2" ry="2" width="12" height="12"/><rect class="u u0" height="12" width="657.1" x="0.0" y="144"/><rect class="u u1" height="12" width="14.3" x="656.5" y="144"/><rect class="u u2" height="12" width="14.3" x="670.2" y="144"/><rect class="u u3" height="12" width="96.3" x="683.9" y="144"/><rect class="u u4" height="12" width="28.0" x="779.6" y="144"/><rect class="u u5" height="12" width="41.6" x="807.0" y="144"/><rect class="s s0" x="0.8" y="0.8" width="14.4" height="14.4" rx="4.5" ry="4.5"/><rect class="s s1" x="1.8" y="1.8" width="12.3" height="12.3" rx="4.1" ry="4.1"/><rect class="s s2" x="2.6" y="2.6" width="10.8" height="10.8" rx="3.6" ry="3.6"/><rect class="s s3" x="3.0" y="3.0" width="9.9" height="9.9" rx="3.3" ry="3.3"/></svg>